<?xml version="1.0" encoding="UTF-8"?>
<svg xmlns="http://www.w3.org/2000/svg" xmlns:xlink="http://www.w3.org/1999/xlink" width="1080" zoomAndPan="magnify" viewBox="0 0 810 1012.49997" height="1350" preserveAspectRatio="xMidYMid meet" version="1.0" style="background: transparent;"><defs><g/><clipPath id="b0a5f74e03"><path d="M 0.199219 0 L 809.800781 0 L 809.800781 1012 L 0.199219 1012 Z M 0.199219 0 " clip-rule="nonzero"/></clipPath><clipPath id="6b52d6470e"><rect x="0" width="719" y="0" height="698"/></clipPath></defs><g transform="matrix(1, 0, 0, 1, 45, 157)"><g clip-path="url(#6b52d6470e)"><g fill="#ffffff" fill-opacity="1"><g transform="translate(1.769396, 538.859207)"><g><path d="M 240.484375 0 L 240.484375 -239.21875 L 118.984375 -239.21875 L 118.984375 0 L 33.546875 0 L 33.546875 -316.4375 L 325.921875 -316.4375 L 325.921875 0 Z M 240.484375 0 "/></g></g></g><g fill="#ffffff" fill-opacity="1"><g transform="translate(361.235459, 538.859207)"><g><path d="M 1.265625 0 L 127.84375 -166.4375 L 13.921875 -316.4375 L 112.015625 -316.4375 L 178.46875 -224.671875 L 244.921875 -316.4375 L 343.015625 -316.4375 L 229.09375 -166.4375 L 355.671875 0 L 256.3125 0 L 178.46875 -101.890625 L 100.625 0 Z M 1.265625 0 "/></g></g></g></g></g></svg>