<svg xmlns="http://www.w3.org/2000/svg" xmlns:xlink="http://www.w3.org/1999/xlink" width="1080" zoomAndPan="magnify" viewBox="0 0 810 1012.49997" height="1350" preserveAspectRatio="xMidYMid meet" version="1.0"><defs><g/><clipPath id="c3e9ae2736"><path d="M 0.199219 0 L 809.800781 0 L 809.800781 1012 L 0.199219 1012 Z M 0.199219 0 " clip-rule="nonzero"/></clipPath><clipPath id="cae8d2489c"><rect x="0" width="796" y="0" height="388"/></clipPath></defs><g clip-path="url(#c3e9ae2736)"><path fill="#ffffff" d="M 0.199219 0 L 809.800781 0 L 809.800781 1012 L 0.199219 1012 Z M 0.199219 0 " fill-opacity="1" fill-rule="nonzero"/><path fill="#ffffff" d="M 0.199219 0 L 809.800781 0 L 809.800781 1012 L 0.199219 1012 Z M 0.199219 0 " fill-opacity="1" fill-rule="nonzero"/></g><g transform="matrix(1, 0, 0, 1, 7, 350)"><g clip-path="url(#cae8d2489c)"><g fill="#000000" fill-opacity="1"><g transform="translate(0.580455, 299.87338)"><g><path d="M 133.703125 0 L 133.703125 -133 L 66.140625 -133 L 66.140625 0 L 18.640625 0 L 18.640625 -175.921875 L 181.203125 -175.921875 L 181.203125 0 Z M 133.703125 0 "/></g></g></g><g fill="#000000" fill-opacity="1"><g transform="translate(200.429276, 299.87338)"><g><path d="M 105.546875 -77.75 C 96.640625 -77.75 87.960938 -78.273438 79.515625 -79.328125 C 71.066406 -80.390625 64.265625 -81.742188 59.109375 -83.390625 C 59.578125 -69.785156 64.503906 -59.285156 73.890625 -51.890625 C 83.273438 -44.503906 95.941406 -40.8125 111.890625 -40.8125 C 126.429688 -40.8125 138.859375 -43.742188 149.171875 -49.609375 C 159.492188 -55.472656 167.820312 -61.6875 174.15625 -68.25 L 174.15625 -16.53125 C 166.65625 -10.664062 157.15625 -5.796875 145.65625 -1.921875 C 134.164062 1.941406 121.265625 3.875 106.953125 3.875 C 86.078125 3.875 68.367188 -0.171875 53.828125 -8.265625 C 39.285156 -16.359375 28.257812 -27.207031 20.75 -40.8125 C 13.25 -54.414062 9.5 -69.660156 9.5 -86.546875 C 9.5 -104.609375 13.425781 -120.617188 21.28125 -134.578125 C 29.144531 -148.535156 40.226562 -159.5625 54.53125 -167.65625 C 68.84375 -175.75 85.5 -179.796875 104.5 -179.796875 C 119.75 -179.796875 132.59375 -177.332031 143.03125 -172.40625 C 153.46875 -167.476562 161.378906 -160.910156 166.765625 -152.703125 C 172.160156 -144.492188 174.859375 -135.578125 174.859375 -125.953125 C 174.859375 -117.046875 172.75 -109.070312 168.53125 -102.03125 C 164.3125 -95 158.800781 -89.722656 152 -86.203125 C 147.300781 -83.617188 141.960938 -81.738281 135.984375 -80.5625 C 130.003906 -79.394531 124.257812 -78.632812 118.75 -78.28125 C 113.238281 -77.925781 108.835938 -77.75 105.546875 -77.75 Z M 94.296875 -111.1875 C 103.910156 -111.1875 111.472656 -112.0625 116.984375 -113.8125 C 122.492188 -115.570312 125.25 -119.148438 125.25 -124.546875 C 125.25 -129.941406 122.960938 -133.632812 118.390625 -135.625 C 113.816406 -137.625 108.484375 -138.625 102.390625 -138.625 C 93.472656 -138.625 85.613281 -136.628906 78.8125 -132.640625 C 72.007812 -128.648438 66.96875 -122.4375 63.6875 -114 C 66.726562 -113.289062 70.769531 -112.644531 75.8125 -112.0625 C 80.863281 -111.476562 87.023438 -111.1875 94.296875 -111.1875 Z M 94.296875 -111.1875 "/></g></g></g><g fill="#000000" fill-opacity="1"><g transform="translate(388.667127, 299.87338)"><g><path d="M 0.703125 0 L 71.078125 -92.53125 L 7.734375 -175.921875 L 62.28125 -175.921875 L 99.21875 -124.90625 L 136.15625 -175.921875 L 190.703125 -175.921875 L 127.375 -92.53125 L 197.734375 0 L 142.5 0 L 99.21875 -56.640625 L 55.9375 0 Z M 0.703125 0 "/></g></g></g><g fill="#000000" fill-opacity="1"><g transform="translate(587.108525, 299.87338)"><g><path d="M 199.140625 -87.96875 C 199.140625 -71.3125 195.035156 -56.003906 186.828125 -42.046875 C 178.617188 -28.085938 167.414062 -16.941406 153.21875 -8.609375 C 139.03125 -0.285156 122.789062 3.875 104.5 3.875 C 86.195312 3.875 69.832031 -0.285156 55.40625 -8.609375 C 40.988281 -16.941406 29.671875 -28.085938 21.453125 -42.046875 C 13.242188 -56.003906 9.140625 -71.3125 9.140625 -87.96875 C 9.140625 -104.851562 13.242188 -120.210938 21.453125 -134.046875 C 29.671875 -147.890625 40.988281 -158.972656 55.40625 -167.296875 C 69.832031 -175.628906 86.195312 -179.796875 104.5 -179.796875 C 122.789062 -179.796875 139.03125 -175.628906 153.21875 -167.296875 C 167.414062 -158.972656 178.617188 -147.890625 186.828125 -134.046875 C 195.035156 -120.210938 199.140625 -104.851562 199.140625 -87.96875 Z M 149.53125 -87.96875 C 149.53125 -96.644531 147.535156 -104.441406 143.546875 -111.359375 C 139.566406 -118.273438 134.171875 -123.84375 127.359375 -128.0625 C 120.554688 -132.289062 112.9375 -134.40625 104.5 -134.40625 C 96.050781 -134.40625 88.367188 -132.289062 81.453125 -128.0625 C 74.535156 -123.84375 69.082031 -118.273438 65.09375 -111.359375 C 61.101562 -104.441406 59.109375 -96.644531 59.109375 -87.96875 C 59.109375 -79.519531 61.101562 -71.832031 65.09375 -64.90625 C 69.082031 -57.988281 74.535156 -52.421875 81.453125 -48.203125 C 88.367188 -43.984375 96.050781 -41.875 104.5 -41.875 C 112.9375 -41.875 120.554688 -43.984375 127.359375 -48.203125 C 134.171875 -52.421875 139.566406 -57.988281 143.546875 -64.90625 C 147.535156 -71.832031 149.53125 -79.519531 149.53125 -87.96875 Z M 149.53125 -87.96875 "/></g></g></g></g></g></svg>